<?xml version="1.0" encoding="UTF-8" standalone="no"?>
<!-- Created with Inkscape (http://www.inkscape.org/) -->

<svg
   version="1.1"
   id="svg1"
   width="296"
   height="180"
   viewBox="0 0 296 180"
   sodipodi:docname="tmp3EC7.png"
   xmlns:inkscape="http://www.inkscape.org/namespaces/inkscape"
   xmlns:sodipodi="http://sodipodi.sourceforge.net/DTD/sodipodi-0.dtd"
   xmlns="http://www.w3.org/2000/svg"
   xmlns:svg="http://www.w3.org/2000/svg">
  <defs
     id="defs1">
    <inkscape:path-effect
       effect="mirror_symmetry"
       start_point="148,0"
       end_point="148,180"
       center_point="148,90"
       id="path-effect1"
       is_visible="true"
       lpeversion="1.2"
       lpesatellites=""
       mode="vertical"
       discard_orig_path="false"
       fuse_paths="false"
       oposite_fuse="false"
       split_items="false"
       split_open="false"
       link_styles="false" />
  </defs>
  <sodipodi:namedview
     id="namedview1"
     pagecolor="#ffffff"
     bordercolor="#000000"
     borderopacity="0.25"
     inkscape:showpageshadow="2"
     inkscape:pageopacity="0.0"
     inkscape:pagecheckerboard="0"
     inkscape:deskcolor="#d1d1d1"
     showgrid="false">
    <inkscape:page
       x="0"
       y="0"
       width="296"
       height="180"
       id="page2"
       margin="0"
       bleed="0" />
  </sodipodi:namedview>
  <g
     inkscape:groupmode="layer"
     inkscape:label="Image"
     id="g1">
    <path
       style="fill:#000000"
       d="m 125.82525,58.180113 22.17556,-33.364697 4.8e-4,124.194554 -21.16751,19.18711 5.17419,-36.50802 c 0.34266,-20.91585 0.67162,-20.72534 -4.13263,-33.673101 C 115.96005,102.30234 106.00275,109.60885 93.409344,113.44454 76.632781,117.24556 68.9087,116.48917 53.36961,110.81412 62.254808,101.92818 69.050887,93.53703 75.643757,83.741202 52.436609,88.416903 43.883753,92.69768 14.040541,83.271526 l 49.83165,-51.553124 c 20.915461,17.898154 34.883054,23.93213 61.953059,26.461711 z m 44.3495,0 -22.17556,-33.364697 -4.8e-4,124.194554 21.16751,19.18711 -5.17419,-36.50802 c -0.34266,-20.91585 -0.67162,-20.72534 4.13263,-33.673101 11.91529,4.286381 21.87259,11.592891 34.466,15.428581 16.77656,3.80102 24.50064,3.04463 40.03973,-2.63042 -8.8852,-8.88594 -15.68128,-17.27709 -22.27415,-27.072918 23.20715,4.675701 31.76001,8.956478 61.60322,-0.469676 L 232.12781,31.718402 c -20.91546,17.898154 -34.88306,23.93213 -61.95306,26.461711 z"
       id="path1"
       sodipodi:nodetypes="cccccccccccc"
       inkscape:path-effect="#path-effect1"
       inkscape:original-d="m 125.82525,58.180113 22.17556,-33.364697 4.8e-4,124.194554 -21.16751,19.18711 5.17419,-36.50802 c 0.34266,-20.91585 0.67162,-20.72534 -4.13263,-33.673101 C 115.96005,102.30234 106.00275,109.60885 93.409344,113.44454 76.632781,117.24556 68.9087,116.48917 53.36961,110.81412 62.254808,101.92818 69.050887,93.53703 75.643757,83.741202 52.436609,88.416903 43.883753,92.69768 14.040541,83.271526 l 49.83165,-51.553124 c 20.915461,17.898154 34.883054,23.93213 61.953059,26.461711 z" />
  </g>
</svg>
