<?xml version="1.0" encoding="UTF-8" standalone="no"?>
<!-- Created with Inkscape (http://www.inkscape.org/) -->

<svg
   version="1.1"
   id="svg1"
   width="256"
   height="256"
   viewBox="0 0 256 256"
   sodipodi:docname="tmpEA46plain.svg"
   xmlns:inkscape="http://www.inkscape.org/namespaces/inkscape"
   xmlns:sodipodi="http://sodipodi.sourceforge.net/DTD/sodipodi-0.dtd"
   xmlns="http://www.w3.org/2000/svg"
   xmlns:svg="http://www.w3.org/2000/svg">
  <sodipodi:namedview
     id="namedview1"
     pagecolor="#ffffff"
     bordercolor="#000000"
     borderopacity="0.25"
     inkscape:showpageshadow="2"
     inkscape:pageopacity="0.0"
     inkscape:pagecheckerboard="0"
     inkscape:deskcolor="#d1d1d1">
    <inkscape:page
       x="0"
       y="0"
       width="256"
       height="256"
       id="page2"
       margin="0"
       bleed="0" />
  </sodipodi:namedview>
  <defs
     id="defs1" />
  <g
     id="g1"
     transform="matrix(1.171541,0,0,1.171541,9.6743585,52.857064)">
    <path
       style="fill:#000000"
       d="M 95.75,111.6723 91,104.37044 V 79.185219 54 h 10 v 65.71636 z M 61.188832,88.086245 77.715006,66.873719 c 0.820395,-1.053036 2.29929,-1.324961 3.440607,-0.632625 l 3.279339,1.989282 c 1.000198,0.606731 1.434813,1.833879 1.039436,2.934877 L 77.763171,92.63852 c -0.6379,1.776346 -2.546453,2.751139 -4.359518,2.226623 L 62.350502,91.667489 c -1.54484,-0.446919 -2.150028,-2.312615 -1.16167,-3.581244 z M 38.046604,76.387522 68.829724,58.790726 c 0.951132,-0.543703 2.139968,-0.439171 2.981625,0.262169 l 1.214346,1.011894 c 1.096246,0.913484 1.259026,2.536621 0.366009,3.649604 L 55.589427,85.901668 c -1.075606,1.340545 -2.957774,1.716608 -4.465922,0.892304 L 38.077893,79.663676 c -1.288074,-0.704018 -1.305681,-2.547663 -0.03129,-3.276154 z M 14.411523,51.947329 60.484612,48.7406 c 1.004335,-0.0699 1.98562,0.322618 2.664679,1.06589 l 1.896996,2.076375 c 1.136042,1.243466 0.768915,3.228175 -0.736764,3.982982 L 32.225739,71.949664 c -1.799676,0.90219 -3.972235,0.575382 -5.42685,-0.816335 L 12.441427,57.396689 c -1.987413,-1.901477 -0.773798,-5.258382 1.970096,-5.44936 z M 74,46.201018 V 44.402036 L 87.5,38.7725 101,33.142965 V 48 H 74 Z M 87.605114,20.661644 101,8.5641451 100.999,28.273437 Z M 106.25,111.6723 111,104.37044 V 79.185219 54 h -10 v 65.71636 z M 140.81117,88.086245 124.28499,66.873719 c -0.82039,-1.053036 -2.29929,-1.324961 -3.4406,-0.632625 l -3.27934,1.989282 c -1.0002,0.606731 -1.43482,1.833879 -1.03944,2.934877 l 7.71122,21.473267 c 0.6379,1.776346 2.54645,2.751139 4.35952,2.226623 l 11.05315,-3.197654 c 1.54484,-0.446919 2.15003,-2.312615 1.16167,-3.581244 z M 163.9534,76.387522 133.17028,58.790726 c -0.95114,-0.543703 -2.13997,-0.439171 -2.98163,0.262169 l -1.21434,1.011894 c -1.09625,0.913484 -1.25903,2.536621 -0.36601,3.649604 l 17.80227,22.187275 c 1.07561,1.340545 2.95778,1.716608 4.46592,0.892304 l 13.04562,-7.130296 c 1.28807,-0.704018 1.30568,-2.547663 0.0313,-3.276154 z M 187.58848,51.947329 141.51539,48.7406 c -1.00434,-0.0699 -1.98562,0.322618 -2.66468,1.06589 l -1.897,2.076375 c -1.13604,1.243466 -0.76891,3.228175 0.73677,3.982982 l 32.08378,16.083817 c 1.79968,0.90219 3.97224,0.575382 5.42685,-0.816335 l 14.35746,-13.73664 c 1.98742,-1.901477 0.7738,-5.258382 -1.97009,-5.44936 z M 128,46.201018 V 44.402036 L 114.5,38.7725 101,33.142965 V 48 h 27 z M 114.39489,20.661644 101,8.5641451 101.001,28.273437 Z"
       id="path1" />
  </g>
</svg>
