<?xml version="1.0" encoding="UTF-8" standalone="no"?>
<!-- Created with Inkscape (http://www.inkscape.org/) -->

<svg
   version="1.1"
   id="svg1"
   width="256"
   height="256"
   viewBox="0 0 256 256"
   xmlns="http://www.w3.org/2000/svg"
   xmlns:svg="http://www.w3.org/2000/svg">
  <defs
     id="defs1" />
  <g
     id="g1">
    <g
       id="g2"
       transform="matrix(1.4723253,0,0,1.4723253,-20.704855,33.564683)">
      <path
         style="fill:#000000"
         d="M 95.75,111.6723 91,104.37044 V 79.185219 54 h 10 v 65.71636 z M 74,46.201018 V 44.402036 L 87.5,38.7725 101,33.142965 V 48 H 74 Z M 87.605114,20.661644 101,8.5641451 100.999,28.273437 Z M 106.25,111.6723 111,104.37044 V 79.185219 54 h -10 v 65.71636 z M 128,46.201018 V 44.402036 L 114.5,38.7725 101,33.142965 V 48 h 27 z M 114.39489,20.661644 101,8.5641451 101.001,28.273437 Z"
         id="path1" />
      <path
         id="rect1"
         style="stroke-width:1.42156;stroke-linejoin:round"
         d="m 28.951172,54.064453 7.93164,12.140625 H 84.115234 V 54.064453 Z m 12.351562,18.90625 7.931641,12.138672 H 84.115234 V 72.970703 Z M 53.654297,91.875 61.585938,104.01562 H 84.115234 V 91.875 Z M 172.32652,54.064453 164.39488,66.205078 H 117.16246 V 54.064453 Z m -12.35156,18.90625 -7.93164,12.138672 H 117.16246 V 72.970703 Z M 147.6234,91.875 l -7.93164,12.14062 h -22.5293 V 91.875 Z"
         transform="translate(0.36115188,-0.05642998)" />
    </g>
  </g>
</svg>
