<?xml version="1.0" encoding="UTF-8" standalone="no"?>
<!-- Created with Inkscape (http://www.inkscape.org/) -->

<svg
   version="1.1"
   id="svg1"
   width="256"
   height="256"
   viewBox="0 0 256 256"
   xml:space="preserve"
   xmlns="http://www.w3.org/2000/svg"
   xmlns:svg="http://www.w3.org/2000/svg"><defs
     id="defs1" /><g
     id="g2"
     style="fill:#000000;fill-opacity:1"><path
       style="fill:#000000;fill-opacity:1;stroke-width:2.87231"
       d="m 120.6173,210.6406 c -7.3224,-6.20954 -8.53952,-8.38468 -6.16186,-11.01196 1.78882,-1.97663 1.42406,-6.60536 -0.99742,-12.65725 -1.03926,-2.59736 -2.14306,-3.70088 -4.35278,-4.35168 -2.03185,-0.59841 -3.05257,-1.52059 -3.25416,-2.93997 -0.30729,-2.1637 -1.4944,-2.71729 -2.46371,-1.14892 -0.81621,1.32066 -3.38455,1.08141 -5.491913,-0.5116 -1.567651,-1.18504 -1.653022,-1.63222 -0.62567,-3.27727 1.629276,-2.60889 0.777857,-3.10336 -2.098484,-1.2187 -2.2742,1.49011 -2.497092,1.48646 -4.215879,-0.069 -2.628126,-2.37842 -2.244405,-4.79512 1.402261,-8.83155 2.025401,-2.24187 3.21889,-4.49609 3.222118,-6.08581 0.0083,-4.13427 1.754188,-9.18365 4.166324,-12.05032 1.244393,-1.47887 2.262533,-3.12261 2.262533,-3.65274 0,-0.53014 -2.492463,-3.85265 -5.538798,-7.38336 -6.09526,-7.06441 -11.474853,-9.99808 -16.493365,-8.99437 -3.045104,0.60902 -5.796401,-0.096 -5.062206,-1.28383 0.875134,-1.416 -1.634228,-3.34394 -7.125856,-3.82946 -1.769345,-0.15643 2.063833,-8.26929 1.712273,-8.30586 -0.351563,-0.0366 -6.658867,6.50336 -7.318359,5.13454 -0.659494,-1.36882 -2.930267,-1.82918 -4.07389,-2.10333 -1.143626,-0.27413 -2.922766,-1.88768 -3.953648,-3.58564 -1.837172,-3.026 -1.969063,-3.0754 -6.652517,-2.49209 l -4.778185,0.59511 -5.023875,-5.09081 c -2.763131,-2.79995 -5.594211,-4.925 -5.546421,-5.66312 0.374543,-5.784832 5.328027,-7.867924 1.74773,-10.881947 -2.411428,-2.030025 -13.298568,-1.67459 -15.360889,-2.163721 -1.223591,-0.290206 -3.618942,-0.03287 -1.892543,-1.759261 0.772089,-0.772093 -0.536847,-2.845082 -5.100454,-8.07769 -4.9431962,-5.667848 -5.9293167,-7.291814 -5.0622258,-8.336595 1.6469407,-1.984441 3.1928528,-1.60938 9.8057088,2.37902 6.71731,4.051401 6.570564,4.002917 8.473184,2.79946 1.157844,-0.732368 1.126289,-1.087489 -0.229785,-2.585935 -1.907739,-2.108028 -1.981859,-3.324804 -0.288156,-4.730451 1.019818,-0.846376 2.201031,-0.271318 5.744627,2.796689 l 4.460835,3.862144 0.468598,-2.679449 c 0.657033,-3.756946 2.773693,-3.351484 5.205316,0.997112 2.255154,4.033004 7.03311,7.812693 9.876129,7.812693 0.998149,0 3.346693,1.061593 5.218985,2.359092 4.699559,3.256796 19.234876,6.769224 24.186874,5.844707 15.825181,-2.954493 15.169757,-2.703896 18.060427,-6.905344 2.382403,-3.462703 2.581806,-4.233635 1.633393,-6.315166 -0.957126,-2.100667 -0.791934,-2.671944 1.449003,-5.010969 1.57173,-1.640542 2.58749,-3.771644 2.68304,-5.629158 0.16978,-3.30046 1.30265,-4.210386 6.21062,-4.988387 2.86393,-0.453984 4.24372,-1.734415 10.45316,-9.700416 3.93454,-5.047566 7.61995,-9.15766 8.18981,-9.133541 0.56986,0.02413 4.25316,4.129925 8.18511,9.124011 5.70243,7.242821 7.74826,9.20067 10.11054,9.67574 5.89131,1.184777 6.17853,1.388525 6.17853,4.382872 0,1.966822 0.88934,3.79908 2.80167,5.772101 2.52641,2.606587 2.69354,3.12792 1.70111,5.306088 -0.96429,2.116386 -0.7944,2.878161 1.37199,6.151806 2.87357,4.342246 3.93271,4.825254 14.17872,6.465995 6.79591,1.088262 8.53151,1.04545 15.62539,-0.385445 5.43171,-1.095621 9.2364,-2.472645 11.91351,-4.311837 2.16327,-1.486181 4.7879,-2.702149 5.83252,-2.702149 2.74763,0 6.81634,-3.191537 10.03778,-7.873752 3.16516,-4.600393 4.5537,-5.142312 4.5537,-1.777222 0,3.296931 2.48154,2.940313 6.44056,-0.92556 2.91537,-2.84679 3.49791,-3.079476 4.98582,-1.991495 1.61983,1.184453 1.62167,1.328163 0.0478,3.730176 -1.14125,1.741774 -1.34525,2.789938 -0.67367,3.461511 1.30264,1.302643 3.89356,0.360226 9.37409,-3.409712 4.93152,-3.392291 8.05098,-4.01087 8.91195,-1.767211 0.52696,1.373245 -0.2552,2.534087 -7.40064,10.983624 -2.71713,3.213039 -3.53079,4.692029 -2.7265,5.496317 1.76414,1.764141 -7.01418,-4.423075 -16.64028,2.229421 -7.10421,4.909642 -0.96293,13.933574 -4.43463,17.943444 l -4.51923,5.2198 -5.37487,-0.60809 -5.37487,-0.6081 -1.58856,3.33123 c -1.15733,2.42696 -2.20229,3.63639 -3.73892,3.33123 -4.45083,-0.88388 -9.5371,-6.2001 -11.80717,-4.95492 -2.99607,1.6434 -6.15838,10.35301 -5.29616,12.77221 0.86539,2.42806 -2.09992,3.11969 -5.27839,2.51543 -7.40616,-1.40799 -9.99814,1.99177 -17.39426,10.87912 l -4.5524,5.47026 2.74144,3.89284 c 1.74439,2.47701 3.05836,5.84385 3.61282,9.25723 0.67348,4.14608 1.61001,6.18197 4.12364,8.96426 3.69647,4.09155 3.81951,4.63182 1.76785,7.76305 -1.82356,2.7831 -2.84852,2.8328 -5.57605,0.27043 -2.50694,-2.35514 -3.68963,-1.76148 -1.97154,0.98962 2.39819,3.84011 -2.31972,7.25826 -5.74262,4.16057 -1.69329,-1.5324 -1.7699,-1.51884 -1.7699,0.31336 0,2.39153 -2.57408,5.07083 -4.25281,4.42664 -1.79525,-0.6889 -3.88764,2.96259 -5.15215,8.99117 -0.96653,4.60798 -0.89903,5.51657 0.59808,8.05098 l 1.68756,2.85682 -7.02995,6.78362 c -3.86648,3.731 -7.55927,6.78363 -8.20619,6.78363 -0.64693,0 -4.13458,-2.50874 -7.75034,-5.57498 z m -11.15812,-46.12667 c 0.0536,-0.63191 0.0224,-2.28636 -0.0693,-3.67656 -0.11593,-1.75831 0.27405,-2.52764 1.28132,-2.52764 0.79638,0 1.44798,0.5746 1.44798,1.27688 0,0.70229 0.79233,2.25334 1.76074,3.44678 l 1.76074,2.16989 0.64927,-2.57753 c 0.62855,-2.49525 0.0642,-8.65968 -0.8791,-9.60302 -0.25495,-0.25494 -2.31454,0.40656 -4.57688,1.46999 -3.81653,1.79397 -4.3512,1.83413 -7.40926,0.55639 -3.938533,-1.64563 -4.446853,-0.98209 -4.001683,5.22353 0.20267,2.82512 0.695523,4.0115 1.666483,4.0115 0.90949,0 1.37871,-0.90978 1.37871,-2.6732 0,-2.772 1.96977,-4.38027 2.72967,-2.22872 1.82792,5.17548 2.39487,6.28063 3.222,6.28063 0.51804,0 0.98571,-0.51701 1.03928,-1.14892 z m 39.2392,-0.005 c 0.52679,-0.63474 1.24269,-2.28919 1.5909,-3.67656 0.86117,-3.4312 3.19124,-3.29927 3.19124,0.18066 0,2.57477 1.38578,4.48969 2.46679,3.40868 0.92028,-0.92028 1.3046,-8.38751 0.49304,-9.57964 -0.63943,-0.9393 -1.42634,-0.90676 -3.99156,0.16507 -2.90768,1.21491 -3.55677,1.17308 -7.21535,-0.46491 -4.90118,-2.19433 -5.66273,-1.45755 -5.31939,5.14635 0.27345,5.25976 1.66386,6.00038 2.96487,1.57929 1.27303,-4.32605 3.80056,-3.60505 3.43848,0.98086 -0.27399,3.47009 0.6494,4.34663 2.38098,2.2602 z m -39.27617,-12.66535 c 2.49434,-1.33493 2.24012,-2.05811 -1.41561,-4.02685 -2.61286,-1.40712 -3.44841,-1.50821 -4.5957,-0.55604 -2.61489,2.17016 -1.15959,4.1859 3.94325,5.4618 0.15961,0.0399 1.09024,-0.3556 2.06806,-0.87891 z m 42.63635,-0.11521 c 2.55205,-1.16279 2.95429,-2.54818 1.23813,-4.26434 -1.59132,-1.59132 -3.62719,-1.31229 -6.23099,0.854 -2.2165,1.84406 -2.23052,1.93102 -0.51368,3.18641 2.13927,1.56427 2.52995,1.58016 5.50654,0.22392 z m -14.24564,-36.22824 c 0.0233,-0.54379 -0.99729,-1.96527 -2.26781,-3.15886 -1.78236,-1.67444 -2.55918,-1.92099 -3.40082,-1.07936 -1.37001,1.37002 -5.75981,1.41138 -8.25169,0.0777 -1.57547,-0.84316 -2.28528,-0.62061 -4.23314,1.32725 l -2.34027,2.34027 5.35603,6.10061 5.35603,6.1006 4.86973,-5.35979 c 2.67835,-2.94787 4.88872,-5.80469 4.91194,-6.34848 z m -21.08564,-4.54104 c 0.98982,-1.19265 0.37096,-1.7326 -4.29161,-3.7444 -4.23618,-1.82781 -6.0082,-3.23592 -7.9654,-6.32959 -4.592503,-7.259188 -7.388396,-7.973592 -5.194963,-1.32742 0.996543,3.01952 1.015383,4.11904 0.0958,5.59143 -1.480862,2.37125 0.17725,4.60682 2.972453,4.00765 1.07959,-0.23142 3.82416,0.35011 6.09903,1.29229 5.21017,2.15788 6.83408,2.25786 8.28463,0.51004 z m 29.279,0.0775 c 1.39976,-0.72384 4.28217,-1.48979 6.40536,-1.70211 4.80733,-0.48073 5.31318,-0.97907 3.97503,-3.916 -0.8525,-1.87103 -0.78965,-2.8865 0.31026,-5.01351 3.61346,-6.987655 -0.23894,-7.506644 -4.1592,-0.560324 -2.28994,4.057554 -3.61318,5.306844 -7.30159,6.893554 -2.47764,1.06585 -4.94514,1.93791 -5.48333,1.93791 -1.08058,0 -1.33111,2.09846 -0.36577,3.0638 1.00678,1.00679 3.90848,0.69847 6.61924,-0.70332 z m -14.89746,-6.23173 c 0.58651,-2.37019 1.32815,-4.73298 1.64809,-5.250651 0.57262,-0.926514 19.75595,-10.376463 23.43371,-11.54374 2.27383,-0.721686 2.35501,-1.661148 0.40118,-4.643057 -2.02414,-3.089228 -4.64375,-2.843542 -8.05802,0.755734 -3.15321,3.324077 -18.98822,14.442418 -20.56925,14.442418 -1.72146,0 -16.15726,-10.233617 -19.64549,-13.926794 -1.83732,-1.945281 -4.16803,-3.536873 -5.17934,-3.536873 -1.7066,0 -4.807603,3.460205 -4.807603,5.364491 0,0.458404 4.446343,2.799495 9.880763,5.202421 14.5717,6.443142 15.58793,7.173804 16.3426,11.750191 1.24826,7.56968 4.83544,8.32827 6.55336,1.38586 z M 62.438414,99.293384 c 5.05485,-8.213858 5.337985,-9.000045 3.241239,-9.000045 -0.77092,0 -3.750583,-0.825574 -6.621475,-1.834612 -2.870895,-1.009039 -5.498476,-1.526055 -5.839072,-1.148926 -1.908759,2.113483 -9.116287,15.621699 -9.116287,17.085579 0,1.50497 0.512174,1.6652 3.906347,1.22206 2.14849,-0.28051 4.733572,-0.14973 5.744627,0.2906 3.368149,1.46692 4.013817,0.97514 8.684621,-6.614656 z m 144.732226,6.283136 c 2.7582,-0.0717 4.66973,-0.57476 4.91079,-1.29243 0.66103,-1.968 -9.22092,-17.74965 -10.80561,-17.256772 -0.75829,0.235845 -3.94769,1.180139 -7.08755,2.098423 l -5.70885,1.669607 4.78971,8.04097 c 4.38427,7.360332 4.9842,7.990882 7.08755,7.449272 1.26382,-0.32544 4.3301,-0.64452 6.81396,-0.70907 z m -94.31612,-3.51818 c 2.74503,-2.745037 -1.02226,-7.394842 -4.81283,-5.940265 -3.00337,1.152502 -1.13054,7.043225 2.23924,7.043225 0.80884,0 1.96696,-0.49633 2.57359,-1.10296 z m 36.18514,-1.16767 c 1.96258,-4.307389 -2.80357,-6.919046 -6.06006,-3.320669 -1.27198,1.40553 -1.38719,2.149037 -0.56968,3.676559 1.46398,2.73548 5.31542,2.52873 6.62974,-0.35589 z m -17.52609,-7.428129 c 1.88619,-0.975389 2.60978,-1.920053 2.2881,-2.987206 -0.25874,-0.858388 -1.35582,-4.869612 -2.43794,-8.913829 -1.88727,-7.053251 -3.07289,-9.58446 -4.03754,-8.61981 -0.24696,0.246961 -1.53523,4.529989 -2.86279,9.517819 l -2.41375,9.068778 2.15812,1.659936 c 2.66072,2.046521 3.79628,2.089158 7.3058,0.274306 z M 120.72911,83.438913 c 0.78414,-3.011644 1.30423,-5.597188 1.15576,-5.745655 -0.43188,-0.431884 -8.84652,6.338555 -8.84652,7.117938 0,0.656114 5.72039,4.673383 6.09559,4.280761 0.0932,-0.09754 0.81103,-2.6414 1.59517,-5.653044 z m 22.39876,1.17816 c -0.35405,-1.011043 -8.39563,-7.132598 -8.81666,-6.711571 -0.32171,0.321704 0.81584,5.586288 2.23457,10.341633 0.25228,0.845606 1.24506,0.59032 3.57442,-0.919141 1.77382,-1.149459 3.12727,-2.369374 3.00767,-2.710921 z M 117.54211,65.433129 c 5.25748,-7.559028 9.83852,-13.743685 10.18011,-13.743685 1.12294,0 4.23736,3.974538 12.42397,15.855171 4.4414,6.445472 8.40131,11.71904 8.79981,11.71904 1.07701,0 4.53452,-4.649914 4.53452,-6.098367 0,-0.690116 -0.84015,-2.094908 -1.867,-3.12176 -1.02685,-1.026852 -2.10196,-3.041751 -2.38912,-4.477555 -0.4127,-2.06351 -1.27263,-2.835416 -4.10367,-3.683616 -3.44007,-1.030672 -6.31977,-3.89959 -14.70398,-14.648946 l -2.38311,-3.055378 -6.60619,8.28404 c -5.37215,6.736573 -7.33073,8.524487 -10.48486,9.571216 -3.05089,1.012473 -3.93839,1.78734 -4.15858,3.630811 -0.15395,1.288997 -1.26365,3.2678 -2.46598,4.397337 -1.83573,1.724577 -2.04013,2.437566 -1.27542,4.448915 1.15821,3.046321 2.58304,4.765229 3.90408,4.709882 0.57001,-0.02384 5.33795,-6.228078 10.59542,-13.787105 z"
       id="path13-9" /></g><g
     id="g1"
     transform="translate(-0.05986319,-0.00378948)"
     style="fill:#69696f;fill-opacity:1"><path
       id="path13"
       style="fill:#69696f;fill-opacity:1;stroke-width:2.87231"
       d="m 77.492156,117.43103 c 0.362462,-5.53524 1.525793,-8.03735 4.708984,-10.12305 2.474924,-1.62164 2.428244,-0.83529 0.75,-12.253907 L 82.410125,91.380245 H 77.582 c -3.45056,0 -5.228211,0.458791 -6.232422,1.607421 -2.364639,2.704704 -12.035204,19.928784 -12.65625,21.416014 -0.336981,0.80697 -0.542433,1.1772 -0.642578,1.63672 1.145787,0.32077 2.612466,1.51399 3.335934,3.01559 0.659492,1.36882 1.486328,2.51808 1.837891,2.55468 0.35156,0.0366 2.088077,0.19514 3.857422,0.35157 5.491628,0.48552 7.913334,1.65651 8.032581,2.66871 1.76023,-0.72214 2.36343,-6.98386 2.377578,-7.19992 z M 16.648404,85.026729 c -1.726399,1.726395 -1.184657,2.509766 1.736328,2.509766 2.500958,0 2.717048,0.225894 2.197266,2.296875 -0.519222,2.068756 -0.302033,2.298828 2.18164,2.298828 3.109658,0 4.45498,2.049585 2.441407,3.720703 -0.72824,0.604389 -1.324219,1.37863 -1.324219,1.720703 0,0.735137 5.515646,2.830076 7.451172,2.830076 1.261872,0 5.695616,4.37795 6.073753,4.75156 0.319229,0.31541 11.186012,-16.921173 11.186012,-18.501558 0,-1.97281 -9.864711,-7.411139 -14.361328,-7.917969 -4.932982,-0.55602 -11.529394,1.195655 -14.316406,3.802735 0,0 -2.493536,1.716188 -3.265625,2.488281 z M 178.62757,117.43103 c -0.36246,-5.53524 -1.52579,-8.03735 -4.70898,-10.12305 -2.47493,-1.62164 -2.42825,-0.83529 -0.75,-12.253907 l 0.54101,-3.673828 h 4.82813 c 3.45056,0 5.22821,0.458791 6.23242,1.607421 2.36464,2.704704 12.0352,19.928784 12.65625,21.416014 0.33698,0.80697 0.54243,1.1772 0.64258,1.63672 -1.14579,0.32077 -2.61247,1.51399 -3.33594,3.01559 -0.65949,1.36882 -1.48633,2.51808 -1.83789,2.55468 -0.35156,0.0366 -2.08808,0.19514 -3.85742,0.35157 -5.49163,0.48552 -7.91333,1.65651 -8.03258,2.66871 -1.76023,-0.72214 -2.36343,-6.98386 -2.37758,-7.19992 z m 60.84375,-32.404301 c 1.7264,1.726395 1.18466,2.509766 -1.73633,2.509766 -2.50095,0 -2.71704,0.225894 -2.19726,2.296875 0.51922,2.068756 0.30203,2.298828 -2.18164,2.298828 -3.10966,0 -4.45498,2.049585 -2.44141,3.720703 0.72824,0.604389 1.32422,1.37863 1.32422,1.720703 0,0.735137 -5.51565,2.830076 -7.45117,2.830076 -1.26187,0 -5.69562,4.37795 -6.07375,4.75156 -0.31923,0.31541 -11.18602,-16.921173 -11.18602,-18.501558 0,-1.97281 9.86471,-7.411139 14.36133,-7.917969 4.93298,-0.55602 11.5294,1.195655 14.31641,3.802735 0,0 2.49353,1.716188 3.26562,2.488281 z" /></g></svg>
