<?xml version="1.0" encoding="UTF-8" standalone="no"?>
<svg
   version="1.1"
   x="0px"
   y="0px"
   viewBox="0 0 125 125"
   enable-background="new 0 0 100 100"
   xml:space="preserve"
   id="svg7"
   sodipodi:docname="noun-wing-7562.svg"
   inkscape:export-filename="wing.svg"
   inkscape:export-xdpi="96"
   inkscape:export-ydpi="96"
   width="125"
   height="125"
   xmlns:inkscape="http://www.inkscape.org/namespaces/inkscape"
   xmlns:sodipodi="http://sodipodi.sourceforge.net/DTD/sodipodi-0.dtd"
   xmlns="http://www.w3.org/2000/svg"
   xmlns:svg="http://www.w3.org/2000/svg"><defs
     id="defs7" /><sodipodi:namedview
     id="namedview7"
     pagecolor="#ffffff"
     bordercolor="#000000"
     borderopacity="0.25"
     inkscape:showpageshadow="2"
     inkscape:pageopacity="0.0"
     inkscape:pagecheckerboard="0"
     inkscape:deskcolor="#d1d1d1"><inkscape:page
       x="0"
       y="0"
       width="125"
       height="125"
       id="page2"
       margin="0"
       bleed="0" /></sodipodi:namedview><g
     id="g7"
     transform="translate(12.499827,12.5005)"><path
       d="m 49.942,52.994 c 13.552,-0.488 27.103,-0.977 40.653,-1.465 -2.527,-4.177 -3.159,-7.831 -7.989,-8.461 -7.229,-0.94 -14.458,-1.883 -21.688,-2.826 -14.023,-1.827 -28.05,-3.654 -42.075,-5.48 1.258,2.03 20.881,18.599 31.099,18.232 z"
       id="path1" /><path
       d="m 0,9.786 c 4.391,7.257 26.615,23.072 32.953,23.886 17.33,2.231 34.657,4.46 51.986,6.688 C 81.546,34.753 80.759,31.01 74.627,29.401 65.723,27.06 56.815,24.718 47.91,22.378 31.94,18.182 15.97,13.984 0,9.786 Z"
       id="path2" /><path
       d="m 63.108,66.207 c 10.413,-2.219 20.826,-4.439 31.241,-6.66 -2.028,-3.346 -2.034,-5.359 -5.827,-5.189 -6.158,0.273 -12.314,0.549 -18.471,0.822 -11.343,0.506 -22.686,1.014 -34.028,1.518 1.275,1.366 18.917,11.249 27.085,9.509 z"
       id="path3" /><path
       d="m 87.682,90.213 c 5.725,-3.719 7.262,-7.721 10.519,-13.807 3.651,-6.824 1.257,-7.844 -2.821,-14.596 -0.417,-0.688 -5.842,0.232 -6.453,0.904 -0.745,0.818 -0.248,5.455 -0.294,6.496 -0.318,7.001 -0.635,14.003 -0.951,21.003 z"
       id="path4" /><path
       d="m 86.35,63.447 c -3.795,0.809 -8.604,0.191 -9.572,4.229 -1.373,5.736 -2.746,11.475 -4.12,17.211 9.246,-2.209 13.37,-13.305 13.692,-21.44 z"
       id="path5" /><path
       d="m 74.666,66.121 c -9.148,1.953 -8.956,4.611 -12.879,13.18 6.22,-0.59 12.024,-7.36 12.879,-13.18 z"
       id="path6" /></g></svg>
