<?xml version="1.0" encoding="UTF-8" standalone="no"?>
<!-- Created with Inkscape (http://www.inkscape.org/) -->

<svg
   xmlns:dc="http://purl.org/dc/elements/1.1/"
   xmlns:cc="http://creativecommons.org/ns#"
   xmlns:rdf="http://www.w3.org/1999/02/22-rdf-syntax-ns#"
   xmlns:svg="http://www.w3.org/2000/svg"
   xmlns="http://www.w3.org/2000/svg"
   xmlns:sodipodi="http://sodipodi.sourceforge.net/DTD/sodipodi-0.dtd"
   xmlns:inkscape="http://www.inkscape.org/namespaces/inkscape"
   version="1.1"
   id="svg80"
   width="150"
   height="150"
   viewBox="0 0 150 150"
   sodipodi:docname="top.svg"
   inkscape:version="0.92.4 5da689c313, 2019-01-14">
  <metadata
     id="metadata86">
    <rdf:RDF>
      <cc:Work
         rdf:about="">
        <dc:format>image/svg+xml</dc:format>
        <dc:type
           rdf:resource="http://purl.org/dc/dcmitype/StillImage" />
        <dc:title />
      </cc:Work>
    </rdf:RDF>
  </metadata>
  <defs
     id="defs84" />
  <sodipodi:namedview
     pagecolor="#ffffff"
     bordercolor="#666666"
     borderopacity="1"
     objecttolerance="10"
     gridtolerance="10"
     guidetolerance="10"
     inkscape:pageopacity="0"
     inkscape:pageshadow="2"
     inkscape:window-width="1920"
     inkscape:window-height="996"
     id="namedview82"
     showgrid="false"
     inkscape:zoom="3.3943982"
     inkscape:cx="141.49061"
     inkscape:cy="43.582292"
     inkscape:window-x="0"
     inkscape:window-y="29"
     inkscape:window-maximized="1"
     inkscape:current-layer="svg80"
     inkscape:snap-intersection-paths="false"
     inkscape:object-paths="false"
     inkscape:object-nodes="false" />
  <path
     style="fill:#959595;fill-opacity:1;stroke-width:0.29460302"
     d="m 98.800345,134.85392 c -3.05037,-3.06557 -6.80898,-6.95394 -8.35247,-8.64081 l -2.80635,-3.06705 -1.73683,1.04706 c -0.95526,0.57589 -3.77983,2.06697 -6.27682,3.31353 l -4.53999,2.26647 -2.45782,-1.09516 c -1.3518,-0.60234 -4.27455,-2.08669 -6.495,-3.29856 l -4.03719,-2.20339 -0.86708,0.98985 c -6.20667,7.08548 -15.28619,16.18795 -15.7172,15.75693 -0.55151,-0.55151 1.14647,-9.41446 3.3241,-17.35079 0.87896,-3.20339 1.59812,-6.00511 1.59812,-6.22603 0,-0.59098 -2.2617,-2.53247 -2.95015,-2.53247 -0.3254,0 -2.81073,1.11003 -5.52296,2.46674 -2.71223,1.35671 -6.4559,3.06774 -8.31926,3.80229 -4.63349,1.82656 -9.4273,3.4739 -9.4273,3.23959 0,-0.2756 4.27956,-5.8802 9.31421,-12.19808 2.37207,-2.97667 4.44161,-5.5741 4.59897,-5.77206 0.33253,-0.41835 -0.7066,-2.29505 -1.49253,-2.69555 -0.32228,-0.16422 -2.70098,0.33829 -6.97049,1.47257 -8.1579,2.16729 -19.18743,4.74104 -19.8006402,4.62049 -0.41028,-0.0806 3.2483002,-3.67206 16.3041302,-16.004772 1.0319,-0.97475 1.87324,-1.90275 1.86964,-2.06222 -0.004,-0.15947 -0.25434,-0.61231 -0.55719,-1.00631 l -0.55063,-0.71637 -3.93551,0.35092 c -13.8290302,1.23311 -21.2596102,1.82671 -21.3784502,1.70787 -0.409,-0.409 11.0337102,-8.437221 17.6392402,-12.375725 l 2.84773,-1.697942 0.18128,-2.556188 c 0.6905,-9.736833 1.57708,-13.841917 4.05143,-18.759263 2.76316,-5.491295 6.99791,-10.260865 12.33715,-13.895226 l 3.09786,-2.108689 0.36752,-7.152051 c 0.20213,-3.933627 0.62623,-10.40819 0.94246,-14.387918 0.31622,-3.979728 0.57555,-7.494382 0.57629,-7.810344 8.8e-4,-0.3585541 0.10439,-0.4692831 0.27552,-0.2946031 0.32949,0.3363171 5.86531,15.0449801 7.92224,21.0493861 2.6945,7.865533 2.53843,7.559873 4.1173,8.063898 0.76192,0.24323 2.44588,0.726179 3.74214,1.073221 1.29625,0.347043 5.27743,1.5425 8.84708,2.656571 l 6.49025,2.025585 4.55736,-1.482896 c 2.50655,-0.815591 7.07621,-2.186129 10.15481,-3.045639 l 5.59746,-1.562745 2.3932,-6.883679 c 2.691695,-7.742226 8.329515,-22.6908591 8.347845,-22.1342241 0.007,0.199879 0.20719,2.5198781 0.44579,5.1555541 0.62453,6.898829 1.3338,18.185157 1.3338,21.224354 0,1.434628 0.13378,2.858387 0.29729,3.163911 0.16351,0.305524 1.5054,1.382952 2.98199,2.394283 5.39357,3.694128 9.85929,8.69436 12.43658,13.92514 2.18371,4.431993 3.15247,8.534989 3.72753,15.787282 0.1863,2.349459 0.39434,4.556648 0.46232,4.904866 0.0837,0.42873 1.09903,1.230133 3.14512,2.482431 7.07683,4.33132 18.05633,12.05316 17.43338,12.26081 -0.29475,0.0983 -6.75693,-0.4215 -19.48614,-1.56725 -5.47077,-0.49242 -5.68381,-0.49139 -6.26031,0.0303 -0.32825,0.29706 -0.59682,0.77585 -0.59682,1.06398 0,0.30253 3.87056,4.23512 9.16118,9.30798 5.03865,4.831272 8.97693,8.821712 8.75173,8.867642 -0.61514,0.12547 -22.34534,-5.08865 -26.21262,-6.28967 -0.34237,-0.10633 -0.77127,0.25182 -1.40554,1.17369 l -0.91281,1.32673 6.28957,7.89223 c 6.71061,8.42056 8.23007,10.42281 8.04787,10.60502 -0.13671,0.1367 -6.66747,-2.20098 -10.20065,-3.65132 -1.37726,-0.56536 -4.91135,-2.22765 -7.85351,-3.69398 l -5.3494,-2.66606 -1.50013,1.26492 c -0.82507,0.69571 -1.499095,1.40989 -1.497845,1.58707 10e-4,0.17717 0.715835,2.84099 1.587955,5.91959 0.87211,3.0786 1.86359,6.98946 2.20328,8.69079 0.82127,4.11334 1.56066,9.17958 1.36785,9.37239 -0.0852,0.0852 -2.65058,-2.35337 -5.700935,-5.41894 z"
     id="path814"
     inkscape:connector-curvature="0" />
</svg>
