<?xml version="1.0" encoding="UTF-8" standalone="no"?>
<svg
   version="1.1"
   x="0px"
   y="0px"
   viewBox="0 0 64 64"
   enable-background="new 0 0 100 100"
   xml:space="preserve"
   id="svg7"
   width="64"
   height="64"
   xmlns="http://www.w3.org/2000/svg"
   xmlns:svg="http://www.w3.org/2000/svg"><defs
     id="defs7" /><g
     id="g8"
     transform="translate(0.54190752,0.18063585)"><g
       id="g7"
       transform="matrix(0.41969217,0.08019839,-0.08019839,0.41969217,9.208759,7.4376646)"
       style="stroke:#ffffff;stroke-width:3.6266;stroke-dasharray:none;stroke-opacity:1"><path
         d="m 49.942,52.994 c 13.552,-0.488 27.103,-0.977 40.653,-1.465 -2.527,-4.177 -3.159,-7.831 -7.989,-8.461 -7.229,-0.94 -14.458,-1.883 -21.688,-2.826 -14.023,-1.827 -28.05,-3.654 -42.075,-5.48 1.258,2.03 20.881,18.599 31.099,18.232 z"
         id="path1"
         style="stroke:#ffffff;stroke-width:3.6266;stroke-dasharray:none;stroke-opacity:1" /><path
         d="m 0,9.786 c 4.391,7.257 26.615,23.072 32.953,23.886 17.33,2.231 34.657,4.46 51.986,6.688 C 81.546,34.753 80.759,31.01 74.627,29.401 65.723,27.06 56.815,24.718 47.91,22.378 31.94,18.182 15.97,13.984 0,9.786 Z"
         id="path2"
         style="stroke:#ffffff;stroke-width:3.6266;stroke-dasharray:none;stroke-opacity:1" /><path
         d="m 63.108,66.207 c 10.413,-2.219 20.826,-4.439 31.241,-6.66 -2.028,-3.346 -2.034,-5.359 -5.827,-5.189 -6.158,0.273 -12.314,0.549 -18.471,0.822 -11.343,0.506 -22.686,1.014 -34.028,1.518 1.275,1.366 18.917,11.249 27.085,9.509 z"
         id="path3"
         style="stroke:#ffffff;stroke-width:3.6266;stroke-dasharray:none;stroke-opacity:1" /><path
         d="m 87.682,90.213 c 5.725,-3.719 7.262,-7.721 10.519,-13.807 3.651,-6.824 1.257,-7.844 -2.821,-14.596 -0.417,-0.688 -5.842,0.232 -6.453,0.904 -0.745,0.818 -0.248,5.455 -0.294,6.496 -0.318,7.001 -0.635,14.003 -0.951,21.003 z"
         id="path4"
         style="stroke:#ffffff;stroke-width:3.6266;stroke-dasharray:none;stroke-opacity:1" /><path
         d="m 86.35,63.447 c -3.795,0.809 -8.604,0.191 -9.572,4.229 -1.373,5.736 -2.746,11.475 -4.12,17.211 9.246,-2.209 13.37,-13.305 13.692,-21.44 z"
         id="path5"
         style="stroke:#ffffff;stroke-width:3.6266;stroke-dasharray:none;stroke-opacity:1" /><path
         d="m 74.666,66.121 c -9.148,1.953 -8.956,4.611 -12.879,13.18 6.22,-0.59 12.024,-7.36 12.879,-13.18 z"
         id="path6"
         style="stroke:#ffffff;stroke-width:3.6266;stroke-dasharray:none;stroke-opacity:1" /></g><path
       d="m 53.216361,20.893103 q 1.046521,0 1.434746,0.236312 0.388226,0.23631 0.388226,0.827089 v 6.481677 q 0,0.573899 -0.52326,0.827089 -0.506381,0.236311 -1.704817,0.236311 -0.79333,0 -1.232194,-0.101276 -0.421984,-0.118156 -0.590777,-0.337587 -0.168793,-0.219432 -0.168793,-0.624537 0,-1.687937 -0.928367,-2.700699 -0.911485,-1.012762 -2.616302,-1.012762 -2.346233,0 -3.561547,1.687936 -1.215315,1.687938 -1.215315,4.861259 0,3.139563 1.282833,4.861259 1.29971,1.704816 3.662823,1.704816 1.468505,0 2.818855,-0.388226 1.350349,-0.405104 2.93701,-1.215313 0.27007,-0.135036 0.506381,-0.135036 0.79333,0 1.316591,1.400987 0.236311,0.641417 0.236311,1.147798 0,0.860847 -0.776451,1.232194 -3.612185,1.789214 -7.207491,1.789214 -2.768216,0 -4.878138,-1.265954 -2.109921,-1.265953 -3.274597,-3.612185 -1.147798,-2.363112 -1.147798,-5.519554 0,-3.139562 1.130918,-5.485795 1.130918,-2.363112 3.122684,-3.629064 2.008645,-1.265953 4.54055,-1.265953 2.95389,0 4.388636,2.126801 v -1.0634 q 0,-0.573899 0.489502,-0.810211 0.489501,-0.25319 1.569781,-0.25319 z"
       id="text7"
       style="font-weight:bold;font-size:41.4529px;font-family:'Courier Prime';-inkscape-font-specification:'Courier Prime Bold';stroke:#ffffff;stroke-width:1.2509;stroke-linejoin:round;stroke-dasharray:none"
       aria-label="C" /></g></svg>
