<?xml version="1.0" encoding="UTF-8" standalone="no"?>
<!-- Created with Inkscape (http://www.inkscape.org/) -->

<svg
   width="8cm"
   height="5cm"
   id="svg2"
   version="1.1"
   viewBox="0 0 283.46458 177.16536"
   sodipodi:docname="air.svg"
   inkscape:version="1.4 (e7c3feb100, 2024-10-09)"
   xmlns:inkscape="http://www.inkscape.org/namespaces/inkscape"
   xmlns:sodipodi="http://sodipodi.sourceforge.net/DTD/sodipodi-0.dtd"
   xmlns="http://www.w3.org/2000/svg"
   xmlns:svg="http://www.w3.org/2000/svg"
   xmlns:rdf="http://www.w3.org/1999/02/22-rdf-syntax-ns#"
   xmlns:cc="http://creativecommons.org/ns#"
   xmlns:dc="http://purl.org/dc/elements/1.1/">
  <sodipodi:namedview
     id="namedview1"
     pagecolor="#505050"
     bordercolor="#eeeeee"
     borderopacity="1"
     inkscape:showpageshadow="0"
     inkscape:pageopacity="0"
     inkscape:pagecheckerboard="0"
     inkscape:deskcolor="#505050"
     inkscape:document-units="cm"
     inkscape:zoom="3.072474"
     inkscape:cx="151.1811"
     inkscape:cy="94.386479"
     inkscape:window-width="1920"
     inkscape:window-height="1014"
     inkscape:window-x="0"
     inkscape:window-y="0"
     inkscape:window-maximized="1"
     inkscape:current-layer="svg2" />
  <defs
     id="defs4">
    <inkscape:path-effect
       effect="mirror_symmetry"
       start_point="141.73229,0"
       end_point="141.73229,177.16536"
       center_point="141.73229,88.582679"
       id="path-effect2"
       is_visible="true"
       lpeversion="1.2"
       lpesatellites=""
       mode="vertical"
       discard_orig_path="false"
       fuse_paths="false"
       oposite_fuse="false"
       split_items="false"
       split_open="false"
       link_styles="false" />
    <linearGradient
       id="linearGradient4780">
      <stop
         style="stop-color:#ffffff;stop-opacity:1;"
         offset="0"
         id="stop4782" />
    </linearGradient>
  </defs>
  <metadata
     id="metadata7">
    <rdf:RDF>
      <cc:Work
         rdf:about="">
        <dc:format>image/svg+xml</dc:format>
        <dc:type
           rdf:resource="http://purl.org/dc/dcmitype/StillImage" />
      </cc:Work>
    </rdf:RDF>
  </metadata>
  <rect
     style="fill:#000000;fill-opacity:1;stroke:#000000;stroke-width:1.06834;stroke-linecap:round;stroke-linejoin:round;stroke-dasharray:none;stroke-opacity:1;paint-order:markers fill stroke"
     id="rect3"
     width="282.39624"
     height="176.09702"
     x="0.53416663"
     y="0.53414255" />
  <flowRoot
     xml:space="preserve"
     id="flowRoot5573"
     style="font-style:normal;font-variant:normal;font-weight:normal;font-stretch:normal;line-height:0.01%;font-family:'Miriam Fixed';-inkscape-font-specification:'Miriam Fixed';letter-spacing:0px;word-spacing:0px;fill:#000000;fill-opacity:1;stroke:none;stroke-width:1.00031;stroke-dasharray:none"
     transform="matrix(0.35731664,0,0,0.35731664,-23.75122,405.35186)"><flowRegion
       id="flowRegion5575"
       style="stroke-width:1.00031;stroke-dasharray:none"><rect
         id="rect5577"
         width="114.14724"
         height="62.629459"
         x="-589.92908"
         y="475.56509"
         style="stroke-width:1.00031253;stroke-dasharray:none" /></flowRegion><flowPara
       id="flowPara5579"
       style="font-size:40px;line-height:1.25;stroke-width:1.00031;stroke-dasharray:none">FDSFSDF</flowPara></flowRoot>
  <g
     id="g2"
     inkscape:path-effect="#path-effect2">
    <path
       d="m 77.15939,141.46022 c 0,0 8.91845,4.13439 17.12224,3.50832 8.20969,-0.62606 6.17793,-3.24844 5.2861,-5.61685 -0.88003,-2.37432 -10.27689,-22.42009 2.29161,-41.05439 0,0 9.00705,1.3761 9.00705,-5.2211 0,-3.3075 -0.0189,-6.0952 8.12111,-6.0952 3.55557,0 2.27981,-7.3711 1.02178,-12.1847 -1.27575,-4.8255 -10.99156,-52.0222 -12.0783,-57.208 -1.26393,-6.1012 -13.15914,5.6877 -12.14917,11.275 0,0 -8.67037,4.3411 -6.93984,13.8738 0,0 -7.69585,2.4452 -6.93395,9.5445 0,0 -6.07164,2.5988 -4.3411,11.2751 0,0 -7.48913,0.1773 -5.20341,13.8856 0,0 -9.7276,2.268 -3.64415,13.1887 0,0 -6.92804,4.3175 0.17104,13.7025 0,0 -6.63864,2.3448 1.74234,13.0115 0,0 -6.8985,7.4241 1.73053,13.01149 0,0 7.02845,1.54736 4.79588,11.10373 m 129.14603,0 c 0,0 -8.91845,4.13439 -17.12224,3.50832 -8.20969,-0.62606 -6.17793,-3.24844 -5.2861,-5.61685 0.88003,-2.37432 10.27689,-22.42009 -2.29161,-41.05439 0,0 -9.00705,1.3761 -9.00705,-5.2211 0,-3.3075 0.0189,-6.0952 -8.12111,-6.0952 -3.55557,0 -2.27981,-7.3711 -1.02178,-12.1847 1.27575,-4.8255 10.99156,-52.0222 12.0783,-57.208 1.26393,-6.1012 13.15914,5.6877 12.14917,11.275 0,0 8.67037,4.3411 6.93984,13.8738 0,0 7.69585,2.4452 6.93395,9.5445 0,0 6.07164,2.5988 4.3411,11.2751 0,0 7.48913,0.1773 5.20341,13.8856 0,0 9.7276,2.268 3.64415,13.1887 0,0 6.92804,4.3175 -0.17104,13.7025 0,0 6.63864,2.3448 -1.74234,13.0115 0,0 6.8985,7.4241 -1.73053,13.01149 0,0 -7.02845,1.54736 -4.79588,11.10373"
       style="fill:#ffffff;fill-opacity:1;fill-rule:nonzero;stroke:#000000;stroke-width:1.875;stroke-linecap:round;stroke-linejoin:round;stroke-dasharray:none;stroke-opacity:1"
       id="path7785"
       inkscape:original-d="m 77.15939,141.46022 c 0,0 8.91845,4.13439 17.12224,3.50832 8.20969,-0.62606 6.17793,-3.24844 5.2861,-5.61685 -0.88003,-2.37432 -10.27689,-22.42009 2.29161,-41.05439 0,0 9.00705,1.3761 9.00705,-5.2211 0,-3.3075 -0.0189,-6.0952 8.12111,-6.0952 3.55557,0 2.27981,-7.3711 1.02178,-12.1847 -1.27575,-4.8255 -10.99156,-52.0222 -12.0783,-57.208 -1.26393,-6.1012 -13.15914,5.6877 -12.14917,11.275 0,0 -8.67037,4.3411 -6.93984,13.8738 0,0 -7.69585,2.4452 -6.93395,9.5445 0,0 -6.07164,2.5988 -4.3411,11.2751 0,0 -7.48913,0.1773 -5.20341,13.8856 0,0 -9.7276,2.268 -3.64415,13.1887 0,0 -6.92804,4.3175 0.17104,13.7025 0,0 -6.63864,2.3448 1.74234,13.0115 0,0 -6.8985,7.4241 1.73053,13.01149 0,0 7.02845,1.54736 4.79588,11.10373" />
    <g
       id="g1"
       style="fill:#000000;fill-opacity:1;stroke:#000000;stroke-width:10.4949;stroke-linecap:round;stroke-linejoin:round;stroke-dasharray:none;stroke-opacity:1"
       transform="matrix(0.35731664,0,0,0.35731664,-25.09116,404.01192)">
      <path
         d="m 333.6206,-1053.3709 c 0.0132,0.066 8.90938,28.8274 18.13283,59.0433 9.20691,30.18281 18.76095,61.85328 19.91801,67.27495 0.69424,3.22325 1.09095,6.59526 1.09095,9.86809 0,7.80192 -2.2976,14.99224 -8.61186,19.20725 l 1.05789,1.58683 c 7.04155,-4.67784 9.48791,-12.66158 9.48791,-20.79408 0,-3.43813 -0.42976,-6.92584 -1.15706,-10.2648 -2.42983,-11.24004 -38.0839,-126.45044 -38.0839,-126.48354 z m 266.51574,0 c -0.0132,0.066 -8.90938,28.8274 -18.13283,59.0433 -9.20691,30.18281 -18.76095,61.85328 -19.91801,67.27495 -0.69424,3.22325 -1.09095,6.59526 -1.09095,9.86809 0,7.80192 2.2976,14.99224 8.61186,19.20725 l -1.05789,1.58683 c -7.04155,-4.67784 -9.48791,-12.66158 -9.48791,-20.79408 0,-3.43813 0.42976,-6.92584 1.15706,-10.2648 2.42983,-11.24004 38.0839,-126.45044 38.0839,-126.48354 z"
         style="fill:#000000;fill-opacity:1;fill-rule:nonzero;stroke:#000000;stroke-width:10.4949;stroke-linecap:round;stroke-linejoin:round;stroke-dasharray:none;stroke-opacity:1"
         id="path7797"
         inkscape:original-d="m 333.6206,-1053.3709 c 0.0132,0.066 8.90938,28.8274 18.13283,59.0433 9.20691,30.18281 18.76095,61.85328 19.91801,67.27495 0.69424,3.22325 1.09095,6.59526 1.09095,9.86809 0,7.80192 -2.2976,14.99224 -8.61186,19.20725 l 1.05789,1.58683 c 7.04155,-4.67784 9.48791,-12.66158 9.48791,-20.79408 0,-3.43813 -0.42976,-6.92584 -1.15706,-10.2648 -2.42983,-11.24004 -38.0839,-126.45044 -38.0839,-126.48354 z" />
      <path
         d="m 314.22994,-1014.4737 37.6872,93.88738 1.78518,-0.69424 -37.6872,-93.90394 m 303.51188,0.7108 -37.6872,93.88738 -1.78518,-0.69424 37.6872,-93.90394"
         style="fill:#000000;fill-opacity:1;fill-rule:nonzero;stroke:#000000;stroke-width:10.4949;stroke-linecap:round;stroke-linejoin:round;stroke-dasharray:none;stroke-opacity:1"
         id="path7805"
         inkscape:original-d="m 314.22994,-1014.4737 37.6872,93.88738 1.78518,-0.69424 -37.6872,-93.90394" />
      <path
         d="m 294.85079,-987.68765 33.33994,67.17578 1.71907,-0.84367 -33.33995,-67.17577 m 342.3363,0.84366 -33.33994,67.17578 -1.71907,-0.84367 33.33995,-67.17577"
         style="fill:#000000;fill-opacity:1;fill-rule:nonzero;stroke:#000000;stroke-width:10.4949;stroke-linecap:round;stroke-linejoin:round;stroke-dasharray:none;stroke-opacity:1"
         id="path7813"
         inkscape:original-d="m 294.85079,-987.68765 33.33994,67.17578 1.71907,-0.84367 -33.33995,-67.17577" />
      <path
         d="m 282.75452,-956.03543 25.70333,38.8112 1.60336,-1.05788 -25.71986,-38.79467 m 366.66107,1.04135 -25.70333,38.8112 -1.60336,-1.05788 25.71986,-38.79467"
         style="fill:#000000;fill-opacity:1;fill-rule:nonzero;stroke:#000000;stroke-width:10.4949;stroke-linecap:round;stroke-linejoin:round;stroke-dasharray:none;stroke-opacity:1"
         id="path7821"
         inkscape:original-d="m 282.75452,-956.03543 25.70333,38.8112 1.60336,-1.05788 -25.71986,-38.79467" />
      <path
         d="m 268.3309,-917.00101 22.06685,20.51307 1.32235,-1.405 -22.08337,-20.51308 m 395.78931,1.40501 -22.06685,20.51307 -1.32235,-1.405 22.08337,-20.51308"
         style="fill:#000000;fill-opacity:1;fill-rule:nonzero;stroke:#000000;stroke-width:10.4949;stroke-linecap:round;stroke-linejoin:round;stroke-dasharray:none;stroke-opacity:1"
         id="path7829"
         inkscape:original-d="m 268.3309,-917.00101 22.06685,20.51307 1.32235,-1.405 -22.08337,-20.51308" />
      <path
         d="m 258.52059,-879.88732 24.33139,7.37214 0.562,-1.83477 -24.33138,-7.37214 m 416.15375,1.83477 -24.33139,7.37214 -0.562,-1.83477 24.33138,-7.37214"
         style="fill:#000000;fill-opacity:1;fill-rule:nonzero;stroke:#000000;stroke-width:10.4949;stroke-linecap:round;stroke-linejoin:round;stroke-dasharray:none;stroke-opacity:1"
         id="path7837"
         inkscape:original-d="m 258.52059,-879.88732 24.33139,7.37214 0.562,-1.83477 -24.33138,-7.37214" />
      <path
         d="m 259.06435,-841.50919 23.85202,5.42166 0.42977,-1.86783 -23.85203,-5.42166 m 415.19848,1.86783 -23.85202,5.42166 -0.42977,-1.86783 23.85203,-5.42166"
         style="fill:#000000;fill-opacity:1;fill-rule:nonzero;stroke:#000000;stroke-width:10.4949;stroke-linecap:round;stroke-linejoin:round;stroke-dasharray:none;stroke-opacity:1"
         id="path7845"
         inkscape:original-d="m 259.06435,-841.50919 23.85202,5.42166 0.42977,-1.86783 -23.85203,-5.42166" />
      <path
         d="m 264.01988,-805.07824 22.16602,3.05795 0.26448,-1.90089 -22.18256,-3.05795 m 405.46924,1.90089 -22.16602,3.05795 -0.26448,-1.90089 22.18256,-3.05795"
         style="fill:#000000;fill-opacity:1;fill-rule:nonzero;stroke:#000000;stroke-width:10.4949;stroke-linecap:round;stroke-linejoin:round;stroke-dasharray:none;stroke-opacity:1"
         id="path7853"
         inkscape:original-d="m 264.01988,-805.07824 22.16602,3.05795 0.26448,-1.90089 -22.18256,-3.05795" />
    </g>
  </g>
  <path
     d="m 152.0108,92.4253 c -1.50963,-0.5263 -3.13622,-0.824 -4.8319,-0.824 -8.09039,0 -14.64457,6.5595 -14.64457,14.6393 0,8.0904 6.55418,14.6499 14.64457,14.6499 1.61063,0 3.16279,-0.2714 4.61397,-0.7549 l 0.004,0.026 c 1.45648,-0.3666 2.97144,-0.5635 4.53954,-0.5635 9.69039,0 17.66384,7.4632 18.36019,16.97283 1.30765,-3.604 2.06778,-7.53223 2.06778,-11.58813 0,-15.5322 -10.48774,-28.6087 -24.75489,-32.5582"
     style="fill:#ffffff;fill-opacity:1;fill-rule:nonzero;stroke:none;stroke-width:0.321684;stroke-dasharray:none"
     id="path7929" />
  <path
     d="m 164.91048,151.59802 c 1.21197,-1.04718 2.2751,-2.30698 3.12028,-3.7741 4.05051,-7.006 1.65317,-15.96814 -5.35815,-20.00812 -7.00069,-4.0398 -15.95221,-1.6425 -19.9974,5.36356 -0.80798,1.40334 -1.35549,2.88107 -1.66379,4.38009 l -0.017,-0.009 c -0.40398,1.44053 -0.99933,2.84916 -1.78605,4.20466 -4.84255,8.38806 -15.29308,11.57212 -23.87782,7.41529 2.46115,2.93955 5.49105,5.55485 9.00469,7.5801 13.45385,7.76613 30.01203,5.23589 40.57421,-5.15085"
     style="fill:#ef8c10;fill-opacity:1;fill-rule:nonzero;stroke:none;stroke-width:0.321684;stroke-dasharray:none"
     id="path7933" />
  <path
     d="m 105.90417,133.68423 c 0.30279,1.57342 0.86645,3.12559 1.70632,4.59802 4.05051,7.006 13.00202,9.40335 20.00803,5.35815 6.99537,-4.04519 9.39804,-13.00203 5.35284,-20.0028 -0.80267,-1.3926 -1.81262,-2.61 -2.9555,-3.6252 l 0.017,-0.017 c -1.04717,-1.0738 -1.9721,-2.2858 -2.75349,-3.6466 -4.84786,-8.388 -2.37077,-19.0299 5.52293,-24.3934 -3.78473,0.6645 -7.55881,1.988 -11.07777,4.0239 -13.44323,7.7555 -19.52431,23.3675 -15.81931,37.70379"
     style="fill:#009e3d;fill-opacity:1;fill-rule:nonzero;stroke:none;stroke-width:0.321684;stroke-dasharray:none"
     id="path7937" />
</svg>
