<?xml version="1.0" encoding="UTF-8" standalone="no"?>
<!-- Created with Inkscape (http://www.inkscape.org/) -->

<svg
   version="1.1"
   id="svg1"
   width="15cm"
   height="10cm"
   viewBox="0 0 566.92913 377.95276"
   xml:space="preserve"
   xmlns="http://www.w3.org/2000/svg"
   xmlns:svg="http://www.w3.org/2000/svg"><defs
     id="defs1"><linearGradient
       id="linearGradient3447"><stop
         style="stop-color:#6d6d6d;stop-opacity:1;"
         offset="0"
         id="stop3445" /></linearGradient><linearGradient
       id="linearGradient4780"><stop
         style="stop-color:#ec3a3a;stop-opacity:1;"
         offset="0"
         id="stop4782" /></linearGradient><linearGradient
       id="linearGradient4780-9"><stop
         style="stop-color:#ffffff;stop-opacity:1;"
         offset="0"
         id="stop4782-1" /></linearGradient><filter
       style="color-interpolation-filters:sRGB"
       id="filter4485-2"
       x="-0.089843773"
       y="-0.089843773"
       width="1.1796875"
       height="1.1796875"><feColorMatrix
         type="hueRotate"
         values="180"
         result="color1"
         id="feColorMatrix4481-2" /><feColorMatrix
         values="-1 0 0 0 1 0 -1 0 0 1 0 0 -1 0 1 -0.21 -0.72 -0.07 2 0 "
         result="color2"
         id="feColorMatrix4483-8" /></filter></defs><g
     id="g1"><path
       style="fill:#000000"
       d="M 251,205.32866 C 0,88.36629 0,88.36629 251,205.32866 Z"
       id="path1" /><path
       style="fill:#ffffff;fill-opacity:1;stroke:#000000;stroke-width:4.56161;stroke-dasharray:none;stroke-opacity:1"
       d="m 139.21213,172.74256 c 0.98629,-2.1872 1.57868,-4.1913 1.31643,-4.45355 -0.64649,-0.6465 -10.31058,1.94515 -15.20416,4.07734 l -3.96662,1.72831 5.4541,1.20103 c 9.5148,2.09523 10.38492,1.91608 12.40025,-2.55313 z m 288.50488,0 c -0.98629,-2.1872 -1.57869,-4.1913 -1.31644,-4.45355 0.64649,-0.6465 10.31058,1.94515 15.20416,4.07734 l 3.96662,1.72831 -5.4541,1.20103 c -9.5148,2.09523 -10.38492,1.91608 -12.40024,-2.55313 z"
       id="path24" /><path
       style="fill:#ffffff;fill-opacity:1;stroke:#000000;stroke-width:4.56161;stroke-dasharray:none;stroke-opacity:1"
       d="m 156.47797,173.99224 c 2.22055,-2.5907 4.04024,-5.04505 4.04376,-5.4541 0.004,-0.40906 -3.55603,-0.74375 -7.91012,-0.74375 h -7.91654 l -2.47749,4.8891 c -2.83169,5.58808 -2.72804,5.69756 5.5898,5.90407 4.35453,0.10812 4.87606,-0.16829 8.67059,-4.59532 z m 253.9732,0 c -2.22056,-2.5907 -4.04025,-5.04505 -4.04377,-5.4541 -0.004,-0.40906 3.55603,-0.74375 7.91012,-0.74375 h 7.91654 l 2.47749,4.8891 c 2.83169,5.58808 2.72804,5.69756 -5.5898,5.90407 -4.35453,0.10812 -4.87606,-0.16829 -8.67058,-4.59532 z"
       id="path23" /><path
       style="fill:#ffffff;fill-opacity:1;stroke:#000000;stroke-width:4.56161;stroke-dasharray:none;stroke-opacity:1"
       d="m 179.70874,179.6996 c 2.42178,-2.87812 4.19061,-6.71434 3.44137,-7.46358 -0.97379,-0.97378 -16.02039,-3.47571 -17.69894,-2.94296 -2.05877,0.65343 -8.88965,8.44727 -8.88965,10.14285 0,1.15827 9.06004,2.91419 16.02624,3.10602 3.99512,0.11002 4.96121,-0.2756 7.12098,-2.84233 z m 207.51166,0 c -2.42178,-2.87812 -4.19062,-6.71434 -3.44137,-7.46358 0.97378,-0.97378 16.02039,-3.47571 17.69893,-2.94296 2.05877,0.65343 8.88965,8.44727 8.88965,10.14285 0,1.15827 -9.06004,2.91419 -16.02624,3.10602 -3.99512,0.11002 -4.96121,-0.2756 -7.12097,-2.84233 z"
       id="path22" /><path
       style="fill:#ffffff;fill-opacity:1;stroke:#000000;stroke-width:4.56161;stroke-dasharray:none;stroke-opacity:1"
       d="m 231.75207,188.02282 c -0.49241,-2.43884 -30.58339,-13.31887 -40.48263,-14.63736 l -4.46245,-0.59435 -3.23141,5.59162 c -1.77728,3.0754 -3.11601,5.69961 -2.97496,5.8316 0.14104,0.13199 8.28885,1.17536 18.10623,2.3186 31.12128,3.6241 33.49778,3.73125 33.04522,1.48989 z m 103.42499,0 c 0.49241,-2.43884 30.58339,-13.31887 40.48263,-14.63736 l 4.46245,-0.59435 3.23141,5.59162 c 1.77728,3.07539 3.11601,5.69961 2.97496,5.8316 -0.14104,0.13199 -8.28884,1.17536 -18.10623,2.3186 -31.12128,3.6241 -33.49777,3.73125 -33.04522,1.48989 z"
       id="path21" /><path
       style="fill:#ffffff;fill-opacity:1;stroke:#000000;stroke-width:4.56161;stroke-dasharray:none;stroke-opacity:1"
       d="m 130.69946,186.51832 c 2.21864,-3.32245 3.78709,-6.44017 3.48543,-6.92827 -0.30166,-0.4881 -1.85447,-0.88745 -3.45069,-0.88745 -1.5962,0 -4.82245,-0.51359 -7.16943,-1.14131 -2.34697,-0.62772 -5.83061,-0.84802 -7.74139,-0.48956 -3.68189,0.69073 -15.935618,8.26933 -16.53432,10.22604 -0.216002,0.70594 1.89263,1.62619 5.40313,2.35805 8.97551,1.87117 20.56249,3.64107 21.30279,3.25397 0.36881,-0.19285 2.48583,-3.06901 4.70448,-6.39147 z m 305.53022,0 c -2.21865,-3.32245 -3.7871,-6.44017 -3.48544,-6.92827 0.30166,-0.4881 1.85447,-0.88745 3.45069,-0.88745 1.59621,0 4.82246,-0.51359 7.16943,-1.14131 2.34697,-0.62772 5.83061,-0.84802 7.7414,-0.48956 3.68188,0.69073 15.93561,8.26933 16.53431,10.22604 0.216,0.70594 -1.89263,1.62619 -5.40313,2.35805 -8.9755,1.87117 -20.56248,3.64107 -21.30278,3.25397 -0.36882,-0.19285 -2.48583,-3.06901 -4.70448,-6.39147 z"
       id="path20" /><path
       style="fill:#ffffff;fill-opacity:1;stroke:#000000;stroke-width:4.56161;stroke-dasharray:none;stroke-opacity:1"
       d="m 141.60918,192.73061 c 0.54115,-1.01115 2.62318,-3.80018 4.62673,-6.19784 l 3.64282,-4.35938 -3.8481,-0.68659 c -8.30325,-1.4815 -8.78305,-1.28327 -12.66426,5.23214 -1.97662,3.31816 -3.34117,6.44187 -3.03234,6.94158 0.30883,0.4997 2.7507,0.90855 5.42637,0.90855 3.72219,0 5.09597,-0.43182 5.84878,-1.83846 z m 283.71077,0 c -0.54115,-1.01115 -2.62318,-3.80018 -4.62673,-6.19784 l -3.64282,-4.35938 3.84811,-0.68659 c 8.30324,-1.4815 8.78304,-1.28327 12.66425,5.23214 1.97663,3.31816 3.34117,6.44187 3.03234,6.94158 -0.30883,0.4997 -2.7507,0.90855 -5.42637,0.90855 -3.72219,0 -5.09597,-0.43182 -5.84878,-1.83846 z"
       id="path19" /><path
       style="fill:#ffffff;fill-opacity:1;stroke:#000000;stroke-width:4.56161;stroke-dasharray:none;stroke-opacity:1"
       d="m 170.72885,193.60317 c 2.02535,-2.71288 3.68246,-5.56213 3.68246,-6.33167 0,-0.9993 -2.3381,-1.72484 -8.18115,-2.53872 -4.49964,-0.62677 -9.33733,-1.36732 -10.75041,-1.6457 -2.17941,-0.42934 -3.27033,0.34544 -7.1895,5.10602 -4.45937,5.41675 -5.44633,7.30656 -3.8765,7.4226 0.40906,0.0303 4.98307,0.65225 10.16446,1.38224 5.1814,0.73 10.1064,1.37462 10.94445,1.43251 0.83804,0.0579 3.18082,-2.11439 5.20619,-4.82728 z m 225.47143,0 c -2.02535,-2.71288 -3.68246,-5.56213 -3.68246,-6.33167 0,-0.9993 2.3381,-1.72484 8.18116,-2.53872 4.49963,-0.62677 9.33732,-1.36732 10.75041,-1.6457 2.1794,-0.42934 3.27032,0.34544 7.18949,5.10602 4.45937,5.41675 5.44633,7.30656 3.8765,7.4226 -0.40906,0.0303 -4.98307,0.65225 -10.16446,1.38224 -5.1814,0.73 -10.1064,1.37462 -10.94445,1.43251 -0.83804,0.0579 -3.18082,-2.11439 -5.20619,-4.82728 z"
       id="path18" /><path
       style="fill:#ffffff;fill-opacity:1;stroke:#000000;stroke-width:4.56161;stroke-dasharray:none;stroke-opacity:1"
       d="m 230.93562,196.55238 v -4.95827 l -6.69366,-0.0164 c -3.68152,-0.009 -15.17232,-1.12016 -25.53511,-2.46919 -10.36279,-1.34902 -19.10195,-2.45725 -19.42035,-2.46272 -0.82957,-0.0143 -7.85016,10.34427 -7.85016,11.58253 0,1.13218 25.62791,2.8364 46.85569,3.11585 l 12.64359,0.16643 z m 105.05789,0 v -4.95827 l 6.69367,-0.0164 c 3.68151,-0.009 15.17231,-1.12016 25.5351,-2.46919 10.3628,-1.34902 19.10195,-2.45725 19.42035,-2.46272 0.82957,-0.0143 7.85016,10.34427 7.85016,11.58253 0,1.13218 -25.62791,2.8364 -46.85569,3.11585 l -12.64359,0.16643 z"
       id="path17" /><path
       style="fill:#ffffff;fill-opacity:1;stroke:#000000;stroke-width:4.56161;stroke-dasharray:none;stroke-opacity:1"
       d="m 112.60484,205.8495 c 5.78305,-4.3429 10.24042,-8.42425 10.24042,-9.37655 0,-1.1352 -2.14358,-1.67193 -15.73511,-3.93992 l -12.902933,-2.15308 -6.009901,5.29013 c -3.305443,2.90957 -6.009896,5.84452 -6.009896,6.52211 0,1.77284 3.475643,3.41311 11.404029,5.38193 10.777721,2.67638 13.479291,2.43134 19.013391,-1.72462 z m 341.71945,0 c -5.78305,-4.3429 -10.24042,-8.42425 -10.24042,-9.37655 0,-1.1352 2.14358,-1.67193 15.73511,-3.93992 l 12.90293,-2.15308 6.00991,5.29013 c 3.30544,2.90957 6.00989,5.84452 6.00989,6.52211 0,1.77284 -3.47564,3.41311 -11.40403,5.38193 -10.77772,2.67638 -13.47929,2.43134 -19.01339,-1.72462 z"
       id="path16" /><path
       style="fill:#ffffff;fill-opacity:1;stroke:#000000;stroke-width:4.56161;stroke-dasharray:none;stroke-opacity:1"
       d="m 151.79254,207.8249 c 2.89565,-0.8508 6.81643,-2.71957 8.71287,-4.15281 l 3.44806,-2.60588 -8.40633,-1.14367 c -4.62349,-0.62902 -10.07504,-1.47029 -12.11457,-1.86949 -3.10275,-0.6073 -3.81948,-0.42475 -4.38952,1.11798 -0.37471,1.01409 -2.1644,3.67474 -3.97709,5.91255 -1.8127,2.23781 -3.29581,4.41903 -3.29581,4.84714 0,1.14858 13.93389,-0.31689 20.02239,-2.10582 z m 263.34406,0 c -2.89566,-0.8508 -6.81644,-2.71957 -8.71288,-4.15281 l -3.44805,-2.60588 8.40632,-1.14367 c 4.62349,-0.62902 10.07505,-1.47029 12.11457,-1.86949 3.10275,-0.6073 3.81948,-0.42475 4.38952,1.11798 0.37471,1.01409 2.1644,3.67474 3.97709,5.91255 1.8127,2.23781 3.29581,4.41903 3.29581,4.84714 0,1.14858 -13.93389,-0.31689 -20.02238,-2.10582 z"
       id="path15" /><path
       style="fill:#ffffff;fill-opacity:1;stroke:#000000;stroke-width:4.56161;stroke-dasharray:none;stroke-opacity:1"
       d="m 128.79519,209.66512 c 0,-0.42373 1.78498,-3.14601 3.96662,-6.0495 2.18164,-2.9035 3.96662,-5.63745 3.96662,-6.07545 0,-0.43801 -2.28036,-0.951 -5.06747,-1.14 -4.53391,-0.30744 -5.26285,-0.0692 -6.92314,2.26271 -1.02063,1.43348 -4.0952,4.3142 -6.83239,6.40161 -2.73719,2.08741 -4.97671,4.14983 -4.97671,4.58318 0,0.43333 3.56995,0.78788 7.93323,0.78788 4.36328,0 7.93324,-0.3467 7.93324,-0.77043 z m 309.33875,0 c 0,-0.42373 -1.78498,-3.14601 -3.96662,-6.0495 -2.18164,-2.9035 -3.96662,-5.63745 -3.96662,-6.07545 0,-0.43801 2.28036,-0.951 5.06747,-1.14 4.53391,-0.30744 5.26285,-0.0692 6.92315,2.26271 1.02062,1.43348 4.09519,4.3142 6.83238,6.40161 2.73719,2.08741 4.97672,4.14983 4.97672,4.58318 0,0.43333 -3.56996,0.78788 -7.93324,0.78788 -4.36328,0 -7.93324,-0.3467 -7.93324,-0.77043 z"
       id="path14" /><path
       style="fill:#ffffff;fill-opacity:1;stroke:#000000;stroke-width:4.56161;stroke-dasharray:none;stroke-opacity:1"
       d="m 213.82958,214.82064 c 3.13611,-0.31524 8.51482,-1.26796 11.9527,-2.11714 6.12254,-1.51231 6.24453,-1.6073 5.94993,-4.63301 l -0.30076,-3.08904 -11.40403,-0.6837 c -6.27221,-0.37603 -20.77516,-1.13404 -32.22877,-1.68445 l -20.82475,-1.00077 -2.23123,2.4835 c -1.22717,1.36592 -2.23122,2.83451 -2.23122,3.26354 0,0.88208 14.78403,5.52669 22.31223,7.00971 9.5016,1.87177 14.15512,1.94418 29.0059,0.45136 z m 139.26997,0 c -3.13611,-0.31524 -8.51482,-1.26796 -11.9527,-2.11714 -6.12254,-1.51231 -6.24453,-1.6073 -5.94993,-4.63301 l 0.30076,-3.08904 11.40403,-0.6837 c 6.27221,-0.37603 20.77516,-1.13404 32.22878,-1.68445 l 20.82475,-1.00077 2.23122,2.4835 c 1.22717,1.36592 2.23122,2.83451 2.23122,3.26354 0,0.88208 -14.78403,5.52669 -22.31223,7.00971 -9.5016,1.87177 -14.15512,1.94418 -29.0059,0.45136 z"
       id="path13" /><path
       style="fill:#ffffff;fill-opacity:1;stroke:#000000;stroke-width:4.56161;stroke-dasharray:none;stroke-opacity:1"
       d="m 107.96493,236.71846 c 3.22644,-2.38039 12.45426,-13.9403 16.17597,-20.26401 l 1.79145,-3.04394 -5.26224,0.0152 c -2.89425,0.008 -5.75454,0.34304 -6.35623,0.74374 -1.16787,0.77779 -12.66282,15.78539 -15.532398,20.27886 -2.50852,3.92808 -2.154687,4.74524 2.054718,4.74524 2.46673,0 4.93599,-0.85732 7.12873,-2.47507 z m 350.99927,0 c -3.22643,-2.38039 -12.45426,-13.9403 -16.17597,-20.26401 l -1.79145,-3.04394 5.26224,0.0152 c 2.89425,0.008 5.75455,0.34304 6.35623,0.74374 1.16787,0.77779 12.66282,15.78539 15.5324,20.27886 2.50852,3.92808 2.15469,4.74524 -2.05472,4.74524 -2.46673,0 -4.93599,-0.85732 -7.12873,-2.47507 z"
       id="path12" /><path
       style="fill:#ffffff;fill-opacity:1;stroke:#000000;stroke-width:4.56161;stroke-dasharray:none;stroke-opacity:1"
       d="m 222.33466,239.82509 c 4.05099,-1.69262 11.32716,-9.84623 12.42487,-13.9232 0.73482,-2.72919 -0.68183,-10.67151 -2.16865,-12.15833 -0.89174,-0.89175 -8.29602,1.65789 -9.81997,3.38146 -0.84595,0.95677 -1.86475,4.19393 -2.26401,7.19368 -0.73176,5.49803 -0.99116,6.37712 -3.87725,13.13943 -1.5375,3.60245 -1.52371,3.7187 0.44135,3.7187 1.11565,0 3.4843,-0.60828 5.26366,-1.35174 z m 122.25982,0 c -4.05099,-1.69262 -11.32717,-9.84623 -12.42488,-13.9232 -0.73482,-2.72919 0.68183,-10.67151 2.16865,-12.15833 0.89174,-0.89175 8.29602,1.65789 9.81998,3.38146 0.84594,0.95677 1.86474,4.19393 2.264,7.19368 0.73177,5.49803 0.99116,6.37712 3.87725,13.13943 1.53751,3.60245 1.52371,3.7187 -0.44135,3.7187 -1.11565,0 -3.4843,-0.60828 -5.26365,-1.35174 z"
       id="path11" /><path
       style="fill:#ffffff;fill-opacity:1;stroke:#000000;stroke-width:4.56161;stroke-dasharray:none;stroke-opacity:1"
       d="m 165.38846,239.74 c 5.65756,-2.92563 13.19478,-14.24332 14.1539,-21.25312 0.28503,-2.08319 -0.26043,-2.51048 -4.63523,-3.63103 -2.72705,-0.6985 -5.01695,-1.1979 -5.08865,-1.10976 -0.0717,0.0881 -1.51515,2.92296 -3.20764,6.29961 -1.69248,3.37666 -4.42285,8.26115 -6.06746,10.85444 -5.40189,8.51788 -3.00146,12.89747 4.84508,8.83986 z m 236.15221,0 c -5.65756,-2.92563 -13.19478,-14.24332 -14.15389,-21.25312 -0.28504,-2.08319 0.26042,-2.51048 4.63522,-3.63103 2.72705,-0.6985 5.01695,-1.1979 5.08865,-1.10976 0.0717,0.0881 1.51515,2.92296 3.20764,6.29961 1.69249,3.37666 4.42285,8.26115 6.06746,10.85444 5.40189,8.51788 3.00146,12.89747 -4.84508,8.83986 z"
       id="path10" /><path
       style="fill:#ffffff;fill-opacity:1;stroke:#000000;stroke-width:4.56161;stroke-dasharray:none;stroke-opacity:1"
       d="m 150.04559,238.65249 c 3.50062,-2.2937 9.77013,-10.79387 13.8636,-18.79623 1.95297,-3.81787 3.55303,-7.18372 3.55569,-7.47966 0.007,-0.76035 -8.45446,-2.93272 -11.42284,-2.93272 -1.75175,0 -3.20756,1.08597 -4.98516,3.71871 -1.38096,2.04529 -4.30522,6.39617 -6.49838,9.66863 -2.19314,3.27246 -5.0558,7.43739 -6.36146,9.25539 -1.93992,2.70115 -2.16405,3.64153 -1.22594,5.14366 2.54052,4.06803 8.11158,4.67404 13.07449,1.42222 z m 266.83795,0 c -3.50062,-2.2937 -9.77012,-10.79387 -13.8636,-18.79623 -1.95297,-3.81787 -3.55303,-7.18372 -3.55569,-7.47966 -0.007,-0.76035 8.45446,-2.93272 11.42284,-2.93272 1.75176,0 3.20756,1.08597 4.98516,3.71871 1.38096,2.04529 4.30522,6.39617 6.49838,9.66863 2.19314,3.27246 5.0558,7.43739 6.36146,9.25539 1.93992,2.70115 2.16405,3.64153 1.22595,5.14366 -2.54052,4.06803 -8.11159,4.67404 -13.0745,1.42222 z"
       id="path9" /><path
       style="fill:#ffffff;fill-opacity:1;stroke:#000000;stroke-width:4.56161;stroke-dasharray:none;stroke-opacity:1"
       d="m 125.36423,238.63593 c 7.29244,-3.41671 21.23246,-19.78545 21.27144,-24.97749 0.007,-0.86058 -1.88559,-1.23909 -6.18854,-1.23803 -8.77377,0.002 -12.14998,2.00534 -17.062,10.1231 -2.21442,3.65962 -5.69612,8.364 -7.73714,10.45419 -3.59137,3.67789 -4.51278,6.04195 -2.96719,7.6129 1.15885,1.17787 8.34163,0.0596 12.68343,-1.97467 z m 316.20067,0 c -7.29244,-3.41671 -21.23246,-19.78545 -21.27144,-24.97749 -0.007,-0.86058 1.88559,-1.23909 6.18854,-1.23803 8.77377,0.002 12.14998,2.00534 17.062,10.1231 2.21442,3.65962 5.69613,8.364 7.73714,10.45419 3.59137,3.67789 4.51278,6.04195 2.96719,7.6129 -1.15885,1.17787 -8.34163,0.0596 -12.68343,-1.97467 z"
       id="path8" /><path
       style="fill:#ffffff;fill-opacity:1;stroke:#000000;stroke-width:4.56161;stroke-dasharray:none;stroke-opacity:1"
       d="m 90.977681,238.45366 c 3.374694,-2.51722 19.099759,-23.18055 18.659259,-24.51897 -0.18464,-0.56099 -2.86114,-1.15366 -5.9478,-1.31705 l -5.6121,-0.29705 -4.721931,6.59724 c -2.597064,3.62846 -7.064718,9.48868 -9.928121,13.0227 -5.34462,6.59633 -5.742373,7.36913 -4.462446,8.67005 1.290325,1.3115 9.28842,-0.12454 12.013139,-2.15694 z m 384.973779,0 c -3.3747,-2.51722 -19.09977,-23.18055 -18.65927,-24.51897 0.18464,-0.56099 2.86115,-1.15366 5.9478,-1.31705 l 5.6121,-0.29705 4.72193,6.59724 c 2.59707,3.62846 7.06472,9.48868 9.92812,13.0227 5.34463,6.59633 5.74238,7.36913 4.46245,8.67005 -1.29032,1.3115 -9.28841,-0.12454 -12.01313,-2.15694 z"
       id="path7" /><path
       style="fill:#ffffff;fill-opacity:1;stroke:#000000;stroke-width:4.56161;stroke-dasharray:none;stroke-opacity:1"
       d="m 211.38755,240.17384 c 2.65534,-2.08869 6.0582,-10.84924 7.27526,-18.72987 l 0.67368,-4.36224 -5.33857,0.70819 c -2.93621,0.3895 -5.54112,0.91074 -5.7887,1.15831 -0.24757,0.24757 -0.75989,3.07717 -1.13847,6.288 -0.37858,3.21082 -1.44944,7.33005 -2.37968,9.15385 -3.87118,7.58965 -3.86262,7.77842 0.35234,7.77842 2.31401,0 4.80336,-0.78268 6.34414,-1.99466 z m 144.15403,0 c -2.65533,-2.08869 -6.0582,-10.84924 -7.27526,-18.72987 l -0.67368,-4.36224 5.33857,0.70819 c 2.93621,0.3895 5.54113,0.91074 5.7887,1.15831 0.24757,0.24757 0.75989,3.07717 1.13847,6.288 0.37859,3.21082 1.44944,7.33005 2.37969,9.15385 3.87117,7.58965 3.86261,7.77842 -0.35235,7.77842 -2.31401,0 -4.80336,-0.78268 -6.34414,-1.99466 z"
       id="path6" /><path
       style="fill:#ffffff;fill-opacity:1;stroke:#000000;stroke-width:4.56161;stroke-dasharray:none;stroke-opacity:1"
       d="m 183.20157,239.50484 c 3.43,-2.48032 11.4761,-19.07741 9.96361,-20.55239 -0.22455,-0.21897 -2.51686,-0.71202 -5.09403,-1.09564 l -4.68576,-0.6975 -3.45872,7.58965 c -1.90229,4.17431 -4.30915,8.79733 -5.34859,10.27338 -1.03944,1.47603 -2.22184,3.75147 -2.62756,5.05649 -0.72029,2.31686 -0.62718,2.36034 3.9498,1.84445 2.57811,-0.29059 5.86368,-1.3789 7.30125,-2.41844 z m 200.52599,0 c -3.43,-2.48032 -11.4761,-19.07741 -9.96361,-20.55239 0.22455,-0.21897 2.51686,-0.71202 5.09403,-1.09564 l 4.68577,-0.6975 3.45871,7.58965 c 1.90229,4.17431 4.30916,8.79733 5.34859,10.27338 1.03944,1.47603 2.22184,3.75147 2.62757,5.05649 0.72028,2.31686 0.62717,2.36034 -3.9498,1.84445 -2.57812,-0.29059 -5.86369,-1.3789 -7.30126,-2.41844 z"
       id="path5" /><path
       style="fill:#ffffff;fill-opacity:1;stroke:#000000;stroke-width:4.56161;stroke-dasharray:none;stroke-opacity:1"
       d="m 197.98972,240.91657 c 3.13178,-3.33361 6.02802,-10.56853 6.775,-16.92415 l 0.66094,-5.62364 h -4.35151 -4.3515 l -2.11689,5.70202 c -1.16428,3.13611 -3.253,8.36027 -4.6416,11.60925 -1.38859,3.24899 -2.306,6.26114 -2.03868,6.69367 1.09795,1.77652 7.9597,0.78304 10.06424,-1.45715 z m 170.94969,0 c -3.13177,-3.33361 -6.02802,-10.56853 -6.775,-16.92415 l -0.66094,-5.62364 h 4.35151 4.35151 l 2.11688,5.70202 c 1.16428,3.13611 3.25301,8.36027 4.6416,11.60925 1.38859,3.24899 2.306,6.26114 2.03868,6.69367 -1.09795,1.77652 -7.9597,0.78304 -10.06424,-1.45715 z"
       id="path4" /><path
       style="fill:#ffffff;fill-opacity:1;stroke:#000000;stroke-width:4.56161;stroke-dasharray:none;stroke-opacity:1"
       d="m 70.889393,241.27401 c 1.694531,-1.0333 4.942751,-4.04377 7.218264,-6.68996 4.693925,-5.45854 16.920997,-22.3029 16.951312,-23.3526 0.02697,-0.93415 -15.050294,-5.51858 -16.500162,-5.01707 -2.786422,0.96381 -17.14837,21.92645 -21.427828,31.27597 -1.697783,3.70922 -1.692074,3.76088 0.513671,4.6475 3.79148,1.52402 9.992028,1.11962 13.244743,-0.86384 z m 425.150347,0 c -1.69453,-1.0333 -4.94275,-4.04377 -7.21826,-6.68996 -4.69393,-5.45854 -16.921,-22.3029 -16.95132,-23.3526 -0.027,-0.93415 15.0503,-5.51858 16.50017,-5.01707 2.78642,0.96381 17.14836,21.92645 21.42783,31.27597 1.69778,3.70922 1.69207,3.76088 -0.51368,4.6475 -3.79147,1.52402 -9.99202,1.11962 -13.24474,-0.86384 z"
       id="path3" /><path
       style="fill:#ffffff;fill-opacity:1;stroke:#000000;stroke-width:4.56161;stroke-dasharray:none;stroke-opacity:1"
       d="m 49.024726,242.07085 c 2.541199,-0.77282 4.193918,-2.96911 10.197699,-13.55175 17.150635,-30.23074 42.825865,-52.36742 70.481115,-60.76745 6.66141,-2.02334 8.64621,-2.16275 23.757,-1.66873 24.77071,0.80984 43.29566,4.56405 67.46707,13.67268 5.69983,2.1479 10.659,3.90527 11.02036,3.90527 0.36136,0 1.22363,-1.89654 1.91614,-4.21453 0.6925,-2.318 2.11419,-5.89432 3.15929,-7.94738 l 1.9002,-3.73284 -2.25859,-0.83723 c -18.14062,-6.72449 -52.58819,-17.49268 -62.2537,-19.46029 -25.29865,-5.15006 -44.69885,-4.15111 -59.47169,3.06227 -6.51237,3.17991 -9.56136,5.74786 -23.892467,20.12293 -26.975068,27.05783 -52.80992,58.94991 -55.044569,67.95028 -1.306799,5.26333 3.183701,6.45879 13.022142,3.46677 z m 468.879684,0 c -2.5412,-0.77282 -4.19392,-2.96911 -10.1977,-13.55175 -17.15064,-30.23074 -42.82587,-52.36742 -70.48111,-60.76745 -6.66142,-2.02334 -8.64622,-2.16275 -23.75701,-1.66873 -24.77071,0.80984 -43.29566,4.56405 -67.46707,13.67268 -5.69983,2.1479 -10.65899,3.90527 -11.02035,3.90527 -0.36137,0 -1.22364,-1.89654 -1.91615,-4.21453 -0.6925,-2.318 -2.11419,-5.89432 -3.15929,-7.94738 l -1.9002,-3.73284 2.25859,-0.83723 c 18.14062,-6.72449 52.5882,-17.49268 62.2537,-19.46029 25.29865,-5.15006 44.69885,-4.15111 59.47169,3.06227 6.51237,3.17991 9.56137,5.74786 23.89247,20.12293 26.97507,27.05783 52.80992,58.94991 55.04457,67.95028 1.30679,5.26333 -3.18371,6.45879 -13.02214,3.46677 z"
       id="path2" /><circle
       style="fill:#000000;fill-opacity:1;stroke:#000000;stroke-width:0;stroke-miterlimit:4;stroke-dasharray:none;stroke-opacity:1;filter:url(#filter4485-2)"
       id="path4209"
       transform="matrix(0.41007169,0,0,0.41007169,153.90093,-17.41678)"
       cx="316.17776"
       cy="526.07269"
       r="120.25082" /><circle
       style="fill:#ffffff;fill-opacity:1;stroke:#ffffff;stroke-width:27.5307;stroke-linecap:butt;stroke-linejoin:miter;stroke-miterlimit:4;stroke-dasharray:none;stroke-opacity:1;filter:url(#filter4485-2)"
       id="path5450"
       cx="213.94696"
       cy="354.7153"
       r="76.607147"
       transform="matrix(0.42490686,0,0,0.42490686,192.67965,47.362137)" /><path
       style="fill:#000000;fill-opacity:1;stroke:#000000;stroke-width:4.96511;stroke-linecap:butt;stroke-linejoin:miter;stroke-miterlimit:4;stroke-dasharray:none;stroke-opacity:1;filter:url(#filter4485-2)"
       d="m 195.09276,336.58372 c 13.35515,-17.85289 24.41026,-10.8141 27.73077,-6.86538 27.9201,-20.47499 30.39901,11.24763 56.80771,-1.48077 -18.95673,30.81414 -30.15386,-7.54784 -54.1154,10.23077 l -0.26923,26.22024 c 10.05748,-7.69079 25.54771,7.86248 39.84617,-4.14331 -9.26522,27.60977 -26.22595,4.14331 -39.57694,14 l -0.0907,44.99176 c -1.62023,6.53721 -5.75162,9.0957 -12.29396,8.96978 v -83.03847 c 0,0 0.29838,-12.77282 -18.03846,-8.88462 z"
       id="path5452-5"
       transform="matrix(0.42490686,0,0,0.42490686,192.67965,47.362137)" /><path
       style="fill:#000000;fill-opacity:1;stroke:none;stroke-width:0.397208;stroke-linecap:butt;stroke-linejoin:miter;stroke-miterlimit:4;stroke-dasharray:none;stroke-opacity:1;filter:url(#filter4485-2)"
       d="m 150.09551,313.43337 c 17.71601,-23.6824 32.38095,-14.34523 36.78571,-9.10714 37.03685,-27.16069 40.3252,14.92033 75.35715,-1.96428 -25.14668,40.87589 -40.00001,-10.01244 -71.78572,13.57142 l -0.35714,34.78195 c 13.34155,-10.20207 33.8898,10.42981 52.85714,-5.49623 -12.29059,36.6252 -34.78951,5.49623 -52.5,18.57142 l -0.35714,44.28572 c -1.95644,9.6361 -7.68695,12.98207 -16.78572,10.71429 l 0.71429,-93.57143 c 0,0 0.3958,-16.94353 -23.92857,-11.78572 z"
       id="path5452"
       transform="matrix(0.42490686,0,0,0.42490686,192.67965,47.362137)" /></g></svg>
