<?xml version="1.0" encoding="UTF-8" standalone="no"?>
<svg
   xmlns:dc="http://purl.org/dc/elements/1.1/"
   xmlns:cc="http://creativecommons.org/ns#"
   xmlns:rdf="http://www.w3.org/1999/02/22-rdf-syntax-ns#"
   xmlns:svg="http://www.w3.org/2000/svg"
   xmlns="http://www.w3.org/2000/svg"
   id="svg851"
   version="1.1"
   width="1440"
   height="830">
  <metadata
     id="metadata857">
    <rdf:RDF>
      <cc:Work
         rdf:about="">
        <dc:format>image/svg+xml</dc:format>
        <dc:type
           rdf:resource="http://purl.org/dc/dcmitype/StillImage" />
        <dc:title></dc:title>
      </cc:Work>
    </rdf:RDF>
  </metadata>
  <defs
     id="defs855" />
  <path
     id="path837"
     d="M0 0h1440v830H0z"
     fill="#009a49" />
  <path
     style="fill:#ffd800;fill-opacity:1"
     id="path843"
     stroke-width="2"
     stroke="#009a49"
     fill-rule="evenodd"
     fill="#ffde08"
     d="M832.11 253.75C843.37 147.11 675.72 335.6 551.14 234c-15.04-18.4-21.06-52.4 14.92-69.71 39.57-19.05 177.56 42.4 230.47 8 40.24-26.14 137.02-23.83 92.84 88.72 0 0-61.28 11.56-57.26-7.26zM770.28 583.61l50.75 9.41c-7.98 37.76-27.7 62.57-67.33 55.11z" />
  <path
     style="fill:#ffd800;fill-opacity:1"
     id="path845"
     stroke-width="2"
     stroke="#009a49"
     fill-rule="evenodd"
     fill="#ffde08"
     d="M845.84 281.38l38.2 5.7c-9.01 89.1-12.54 175.47-16.08 233.53-3.54 58.07-17.1 89.7-96.82 63.57z" />
  <path
     style="fill:#ffd800;fill-opacity:1"
     id="path847"
     stroke-linejoin="round"
     stroke-linecap="round"
     stroke-width="2"
     stroke="#009a49"
     fill-rule="evenodd"
     fill="#ffde08"
     d="M595.5 231.2c-9.67 30.17-14.49 58.42-15.66 85.55a19.66 19.66 0 0 0-3.16-.28 19.66 19.66 0 0 0-19.66 19.65 19.66 19.66 0 0 0 19.66 19.66 19.66 19.66 0 0 0 3.9-.4c2.81 35.21 11.22 69.05 22.41 103.34a365.77 365.77 0 0 0 19.8 48.82 19.66 19.66 0 0 0-12.45 18.29A19.66 19.66 0 0 0 630 545.49a19.66 19.66 0 0 0 12.28-4.32c14.88 21.96 32.97 41.33 54.72 55.56-33.37 95.57 46.68 86.4 60.45 44.48l94.66-363.82-29.08.57-100.37 257.75c-80.21-70.7-115.38-179.37-92.51-287.4z" />
  <path
     style="fill:#ffd800;fill-opacity:1"
     id="path849"
     stroke-width="2"
     stroke="#009a49"
     fill-rule="evenodd"
     fill="#ffde08"
     d="M832.44 253.44c39.88-2.04 54.5 5.46 54.5 5.46 11.42 2 8.22 35.33-3.6 31.08-17.6-6.32-34.38-10.5-59.87-8.55-7.38.57-1.15-27.47 8.97-27.99z" />
  <g
     style="stroke:#ffb104;stroke-opacity:1;stroke-width:3;stroke-miterlimit:4;stroke-dasharray:none"
     id="g841"
     fill="none"
     stroke-width="3"
     stroke="#ffde08">
    <path
       style="stroke:#ffb104;stroke-opacity:1;stroke-width:3;stroke-miterlimit:4;stroke-dasharray:none"
       id="path839"
       d="M638.56 249.72l106 310.2M651.27 250.57l99.16 291.39M663.25 249.71l93.34 272.18M674.08 248l87.3 259.48M686.06 245.44l81.45 243.14M697.46 242.87l76.62 224.2M707.44 240.02l71.7 209.78M719.7 236.31l64.65 197.29M730.25 233.18l60.21 184.18M741.37 228.9l55.87 162.96M752.2 224.9l50.75 149.42M763.04 220.06l45.9 136.44M773.3 216.64l40.2 124.61M784.14 213.5l35.97 106.44" />
  </g>
</svg>
